<svg width="18" height="16" viewBox="0 0 18 16" fill="none" xmlns="http://www.w3.org/2000/svg">
<path fill-rule="evenodd" clip-rule="evenodd" d="M9 0C9.18361 0 9.3597 0.070238 9.48954 0.195262C9.61937 0.320287 9.69231 0.489856 9.69231 0.666667V15.3333C9.69231 15.5101 9.61937 15.6797 9.48954 15.8047C9.3597 15.9298 9.18361 16 9 16C8.81639 16 8.6403 15.9298 8.51046 15.8047C8.38063 15.6797 8.30769 15.5101 8.30769 15.3333V0.666667C8.30769 0.489856 8.38063 0.320287 8.51046 0.195262C8.6403 0.070238 8.81639 0 9 0ZM6.23077 2.66667C6.41438 2.66667 6.59047 2.7369 6.7203 2.86193C6.85014 2.98695 6.92308 3.15652 6.92308 3.33333V12.6667C6.92308 12.8435 6.85014 13.013 6.7203 13.1381C6.59047 13.2631 6.41438 13.3333 6.23077 13.3333C6.04716 13.3333 5.87107 13.2631 5.74123 13.1381C5.6114 13.013 5.53846 12.8435 5.53846 12.6667V3.33333C5.53846 3.15652 5.6114 2.98695 5.74123 2.86193C5.87107 2.7369 6.04716 2.66667 6.23077 2.66667ZM11.7692 2.66667C11.9528 2.66667 12.1289 2.7369 12.2588 2.86193C12.3886 2.98695 12.4615 3.15652 12.4615 3.33333V12.6667C12.4615 12.8435 12.3886 13.013 12.2588 13.1381C12.1289 13.2631 11.9528 13.3333 11.7692 13.3333C11.5856 13.3333 11.4095 13.2631 11.2797 13.1381C11.1499 13.013 11.0769 12.8435 11.0769 12.6667V3.33333C11.0769 3.15652 11.1499 2.98695 11.2797 2.86193C11.4095 2.7369 11.5856 2.66667 11.7692 2.66667ZM3.46154 4.66667C3.64515 4.66667 3.82124 4.7369 3.95107 4.86193C4.08091 4.98695 4.15385 5.15652 4.15385 5.33333V10.6667C4.15385 10.8435 4.08091 11.013 3.95107 11.1381C3.82124 11.2631 3.64515 11.3333 3.46154 11.3333C3.27793 11.3333 3.10184 11.2631 2.972 11.1381C2.84217 11.013 2.76923 10.8435 2.76923 10.6667V5.33333C2.76923 5.15652 2.84217 4.98695 2.972 4.86193C3.10184 4.7369 3.27793 4.66667 3.46154 4.66667ZM14.5385 4.66667C14.7221 4.66667 14.8982 4.7369 15.028 4.86193C15.1578 4.98695 15.2308 5.15652 15.2308 5.33333V10.6667C15.2308 10.8435 15.1578 11.013 15.028 11.1381C14.8982 11.2631 14.7221 11.3333 14.5385 11.3333C14.3549 11.3333 14.1788 11.2631 14.0489 11.1381C13.9191 11.013 13.8462 10.8435 13.8462 10.6667V5.33333C13.8462 5.15652 13.9191 4.98695 14.0489 4.86193C14.1788 4.7369 14.3549 4.66667 14.5385 4.66667ZM0.692308 6C0.875919 6 1.05201 6.07024 1.18184 6.19526C1.31168 6.32029 1.38462 6.48986 1.38462 6.66667V9.33333C1.38462 9.51014 1.31168 9.67971 1.18184 9.80474C1.05201 9.92976 0.875919 10 0.692308 10C0.508696 10 0.332605 9.92976 0.202772 9.80474C0.0729395 9.67971 0 9.51014 0 9.33333V6.66667C0 6.48986 0.0729395 6.32029 0.202772 6.19526C0.332605 6.07024 0.508696 6 0.692308 6ZM17.3077 6C17.4913 6 17.6674 6.07024 17.7972 6.19526C17.9271 6.32029 18 6.48986 18 6.66667V9.33333C18 9.51014 17.9271 9.67971 17.7972 9.80474C17.6674 9.92976 17.4913 10 17.3077 10C17.1241 10 16.948 9.92976 16.8182 9.80474C16.6883 9.67971 16.6154 9.51014 16.6154 9.33333V6.66667C16.6154 6.48986 16.6883 6.32029 16.8182 6.19526C16.948 6.07024 17.1241 6 17.3077 6Z" fill="currentColor"/>
</svg>
