<svg width="10" height="16" viewBox="0 0 10 16" fill="none" xmlns="http://www.w3.org/2000/svg">
<path d="M2.52029 0.359C2.55076 0.255329 2.614 0.164319 2.70053 0.0996C2.78707 0.0348812 2.89224 -6.31864e-05 3.00029 8.57717e-08H7.00029C7.07948 6.01937e-05 7.15751 0.018926 7.22798 0.0550444C7.29845 0.0911628 7.35933 0.143501 7.40561 0.20775C7.45189 0.271999 7.48226 0.346322 7.4942 0.424601C7.50614 0.502879 7.49931 0.582874 7.47429 0.658L5.69429 6H9.50029C9.59393 5.99994 9.6857 6.02616 9.76515 6.0757C9.84461 6.12523 9.90857 6.19609 9.94973 6.28019C9.99089 6.36429 10.0076 6.45825 9.99799 6.55139C9.98837 6.64453 9.95278 6.73309 9.89529 6.807L2.89529 15.807C2.82358 15.8996 2.72162 15.9642 2.60719 15.9893C2.49277 16.0144 2.37315 15.9986 2.26921 15.9446C2.16527 15.8905 2.08361 15.8017 2.03848 15.6935C1.99336 15.5854 1.98763 15.4649 2.02229 15.353L3.82329 9.5H0.500293C0.422557 9.50005 0.345882 9.48197 0.276356 9.4472C0.206831 9.41243 0.14637 9.36192 0.0997753 9.2997C0.0531808 9.23748 0.0217362 9.16525 0.00793889 9.08875C-0.00585846 9.01225 -0.00162858 8.93358 0.0202928 8.859L2.52029 0.359ZM3.37429 1L1.16829 8.5H4.50029C4.57854 8.49998 4.6557 8.51833 4.72556 8.55357C4.79543 8.58881 4.85605 8.63996 4.90254 8.70289C4.94904 8.76583 4.98012 8.8388 4.99327 8.91593C5.00643 8.99306 5.0013 9.07221 4.97829 9.147L3.78029 13.04L8.47829 7H5.00029C4.92111 6.99994 4.84307 6.98107 4.77261 6.94496C4.70214 6.90884 4.64126 6.8565 4.59498 6.79225C4.54869 6.728 4.51833 6.65368 4.50639 6.5754C4.49445 6.49712 4.50127 6.41713 4.52629 6.342L6.30629 1H3.37429Z" fill="currentColor"/>
</svg>
